<svg width="24" height="23" viewBox="0 0 24 23" fill="none" xmlns="http://www.w3.org/2000/svg">
<path d="M22.2709 0.738881C21.2857 -0.246294 19.688 -0.246294 18.7029 0.738881L17.1742 2.26898L20.7419 5.83596L22.2709 4.30767C23.2561 3.32213 23.2561 1.72478 22.2709 0.738881Z" fill="#231F20"/>
<path d="M16.1672 3.29379L19.735 6.86157L20.2444 6.35214L16.6766 2.78437L16.1672 3.29379Z" fill="#231F20"/>
<path d="M7.51904 11.925C8.34883 12.1459 9.13366 12.5771 9.78433 13.2275C10.4346 13.8781 10.8659 14.6633 11.0867 15.4924L19.2135 7.36569L15.6461 3.79834L7.51904 11.925Z" fill="#231F20"/>
<path d="M3.16336 13.7171C1.47248 15.4083 1.27825 16.9967 1.07215 18.6793C0.926123 19.8727 0.774696 21.1075 0.0430984 22.4657C-0.0324353 22.6063 -0.0068977 22.7793 0.105683 22.8919C0.218265 23.0045 0.391273 23.0297 0.531909 22.9545C1.89008 22.2229 3.12487 22.0715 4.3183 21.9254C6.00055 21.7193 7.58927 21.5251 9.28051 19.8339C12.3029 16.8115 9.31072 13.7484 9.28051 13.7175C9.24921 13.6869 6.1865 10.6947 3.16336 13.7171ZM8.26044 18.8145C8.11945 18.9555 7.89177 18.9555 7.75077 18.8145C7.60977 18.6735 7.60977 18.4459 7.75077 18.3049C8.59531 17.46 8.59531 16.091 7.75077 15.2465C7.60977 15.1051 7.60977 14.8778 7.75077 14.7368C7.89177 14.5958 8.11945 14.5958 8.26044 14.7368C9.38625 15.8626 9.38625 17.6887 8.26044 18.8145Z" fill="#231F20"/>
</svg>
