<svg width="41" height="40" viewBox="0 0 41 40" fill="none" xmlns="http://www.w3.org/2000/svg">
<path fill-rule="evenodd" clip-rule="evenodd" d="M12.5671 0.245458C9.3114 0.392357 6.48949 1.18835 4.21086 3.45736C1.92427 5.73829 1.13816 8.57138 0.990897 11.7933C0.899353 13.8042 0.364054 28.9965 1.91631 32.9807C2.96309 35.6686 5.02475 37.7352 7.73721 38.7854C9.00289 39.2777 10.4477 39.6109 12.5671 39.7082C30.2887 40.5102 36.8579 40.0736 39.6281 32.9807C40.1196 31.7181 40.458 30.2746 40.5515 28.1604C41.3614 10.3934 40.4202 6.54227 37.3316 3.45736C34.8818 1.01365 32.0002 -0.649839 12.5671 0.245458ZM12.7303 36.135C10.79 36.0476 9.73725 35.7243 9.03475 35.4524C7.26757 34.7655 5.9402 33.4436 5.25761 31.6868C4.0755 28.6594 4.46756 14.281 4.57304 11.9544C4.67652 9.67545 5.13821 7.59265 6.74619 5.9847C8.73626 3.99954 11.3074 3.02664 28.814 3.81673C31.0986 3.91995 33.1863 4.3807 34.7982 5.9847C36.7883 7.96983 37.7753 10.5608 36.9714 28.0002C36.8838 29.9358 36.5594 30.986 36.2868 31.6868C34.4858 36.3022 30.3424 36.9429 12.7303 36.135ZM29.0071 9.37921C29.0071 10.6934 30.0758 11.762 31.3952 11.762C32.7146 11.762 33.7853 10.6934 33.7853 9.37921C33.7853 8.06506 32.7146 6.99739 31.3952 6.99739C30.0758 6.99739 29.0071 8.06506 29.0071 9.37921ZM10.5532 19.9759C10.5532 25.6057 15.1284 30.1702 20.7722 30.1702C26.416 30.1702 30.9912 25.6057 30.9912 19.9759C30.9912 14.346 26.416 9.78449 20.7722 9.78449C15.1284 9.78449 10.5532 14.346 10.5532 19.9759ZM14.1393 19.9759C14.1393 16.3232 17.1085 13.3597 20.7722 13.3597C24.4359 13.3597 27.4051 16.3232 27.4051 19.9759C27.4051 23.6305 24.4359 26.595 20.7722 26.595C17.1085 26.595 14.1393 23.6305 14.1393 19.9759Z" fill="black"/>
</svg>
