<svg width="41" height="40" viewBox="0 0 41 40" fill="none" xmlns="http://www.w3.org/2000/svg">
<path fill-rule="evenodd" clip-rule="evenodd" d="M8.82788 0C4.4096 0 0.827881 3.58172 0.827881 8V32C0.827881 36.4182 4.4096 40 8.82788 40H32.8279C37.2461 40 40.8279 36.4182 40.8279 32V8C40.8279 3.58172 37.2461 0 32.8279 0H8.82788ZM4.82788 8C4.82788 5.79086 6.61874 4 8.82788 4H32.8279C35.0371 4 36.8279 5.79086 36.8279 8V32C36.8279 34.2092 35.0371 36 32.8279 36H8.82788C6.61874 36 4.82788 34.2092 4.82788 32V8ZM14.8279 18C14.8279 16.8954 13.9324 16 12.8279 16C11.7233 16 10.8279 16.8954 10.8279 18V30C10.8279 31.1046 11.7233 32 12.8279 32C13.9324 32 14.8279 31.1046 14.8279 30V18ZM15.8279 11C15.8279 12.6569 14.4847 14 12.8279 14C11.171 14 9.82788 12.6569 9.82788 11C9.82788 9.34314 11.171 8 12.8279 8C14.4847 8 15.8279 9.34314 15.8279 11ZM20.8279 16C21.5069 16 22.1069 16.3384 22.4685 16.8558C23.4937 16.3004 24.6351 16 25.8279 16C30.1467 16 32.8279 19.8516 32.8279 23.1428V23.158V23.173V23.1882V23.2034V23.2186V23.234V23.2492V23.2646V23.28V23.2954V23.311V23.3264V23.342V23.3576V23.3732V23.3888V23.4044V23.4202V23.436V23.4516V23.4676V23.4834V23.4992V23.5152V23.531V23.547V23.563V23.5792V23.5952V23.6114V23.6274V23.6436V23.6598V23.676V23.6924V23.7086V23.725V23.7412V23.7576V23.774V23.7906V23.807V23.8234V23.84V23.8566V23.873V23.8896V23.9064V23.923V23.9396V23.9564V23.9732V23.9898V24.0066V24.0234V24.0402V24.0572V24.074V24.091V24.1078V24.1248V24.1418V24.1588V24.1758V24.1928V24.2098V24.227V24.244V24.2612V24.2784V24.2956V24.3126V24.33V24.3472V24.3644V24.3816V24.399V24.4162V24.4336V24.4508V24.4682V24.4856V24.503V24.5204V24.5378V24.5552V24.5728V24.5902V24.6078V24.6252V24.6428V24.6602V24.6778V24.6954V24.713V24.7306V24.7482V24.7658V24.7834V24.801V24.8186V24.8364V24.854V24.8718V24.8894V24.9072V24.9248V24.9426V24.9604V24.9782V24.9958V25.0136V25.0314V25.0492V25.067V25.0848V25.1026V25.1204V25.1384V25.1562V25.174V25.1918V25.2098V25.2276V25.2454V25.2634V25.2812V25.2992V25.317V25.3348V25.3528V25.3708V25.3886V25.4066V25.4244V25.4424V25.4604V25.4782V25.4962V25.514V25.532V25.55V25.5678V25.5858V25.6038V25.6216V25.6396V25.6576V25.6756V25.6934V25.7114V25.7294V25.7472V25.7652V25.7832V25.801V25.819V25.8368V25.8548V25.8726V25.8906V25.9086V25.9264V25.9444V25.9622V25.98V25.998V26.0158V26.0338V26.0516V26.0694V26.0872V26.1052V26.123V26.1408V26.1586V26.1764V26.1942V26.212V26.2298V26.2476V26.2654V26.2832V26.3008V26.3186V26.3364V26.354V26.3718V26.3894V26.4072V26.4248V26.4426V26.4602V26.4778V26.4954V26.513V26.5306V26.5482V26.5658V26.5834V26.601V26.6184V26.636V26.6534V26.671V26.6884V26.7058V26.7232V26.7406V26.758V26.7754V26.7928V26.8102V26.8276V26.8448V26.8622V26.8794V26.8966V26.914V26.9312V26.9484V26.9654V26.9826V26.9998V27.017V27.034V27.051V27.0682V27.0852V27.1022V27.1192V27.1362V27.153V27.17V27.1868V27.2038V27.2206V27.2374V27.2542V27.271V27.2878V27.3044V27.3212V27.3378V27.3544V27.371V27.3876V27.4042V27.4208V27.4372V27.4538V27.4702V27.4866V27.503V27.5194V27.5358V27.552V27.5684V27.5846V27.6008V27.617V27.6332V27.6492V27.6654V27.6814V27.6974V27.7134V27.7294V27.7454V27.7612V27.777V27.793V27.8088V27.8244V27.8402V27.856V27.8716V27.8872V27.9028V27.9184V27.9338V27.9494V27.9648V27.9802V27.9956V28.011V28.0262V28.0416V28.0568V28.072V28.087V28.1022V28.1172V28.1322V28.1472V28.1622V28.1772V28.192V28.2068V28.2216V28.2364V28.251V28.2658V28.2804V28.295V28.3094V28.324V28.3384V28.3528V28.3672V28.3816V28.3958V28.41V28.4242V28.4384V28.4524V28.4664V28.4804V28.4944V28.5084V28.5222V28.536V28.5498V28.5636V28.5772V28.5908V28.6044V28.618V28.6314V28.6448V28.6582V28.6716V28.685V28.6982V28.7114V28.7244V28.7376V28.7506V28.7636V28.7764V28.7894V28.8022V28.815V28.8276V28.8404V28.853V28.8656V28.878V28.8904V28.9028V28.9152V28.9276V28.9398V28.952V28.964V28.9762V28.9882V29V29.012V29.0238V29.0356V29.0474V29.059V29.0706V29.0822V29.0936V29.105V29.1164V29.1278V29.139V29.1502V29.1614V29.1724V29.1834V29.1944V29.2052V29.2162V29.2268V29.2376V29.2482V29.2588V29.2694V29.2798V29.2902V29.3006V29.3108V29.321V29.3312V29.3412V29.3512V29.3612V29.371V29.3808V29.3906V29.4002V29.4098V29.4194V29.4288V29.4382V29.4476V29.4568V29.466V29.4752V29.4842V29.4932V29.5022V29.511V29.5198V29.5286V29.5372V29.5458V29.5542V29.5626V29.571V29.5794V29.5876V29.5956V29.6038V29.6118V29.6196V29.6276V29.6354V29.643V29.6506V29.6582V29.6656V29.673V29.6804V29.6876V29.6948V29.702V29.709V29.716V29.7228V29.7296V29.7364V29.743V29.7496V29.756V29.7624V29.7688V29.775V29.7812V29.7872V29.7932V29.7992V29.805V29.8108V29.8166V29.8222V29.8276V29.833V29.8384V29.8438V29.849V29.854V29.859V29.864V29.8688V29.8736V29.8784V29.883V29.8876V29.892V29.8962V29.9006V29.9048V29.9088V29.9128V29.9168V29.9206V29.9244V29.928V29.9316V29.9352V29.9386V29.9418V29.945V29.9482V29.9512V29.9542V29.957V29.9598V29.9626V29.9652V29.9676V29.97V29.9724V29.9746V29.9768V29.9788V29.9826V29.986V29.9892V29.9918V29.9942V29.9968V29.9992C32.8279 31.1038 31.9325 32 30.8279 32C29.7233 32 28.8279 31.1046 28.8279 30V29.9976V29.9952V29.993V29.9906V29.9876V29.9844V29.9808V29.9768V29.9746V29.9724V29.97V29.9676V29.9652V29.9626V29.9598V29.957V29.9542V29.9512V29.9482V29.945V29.9418V29.9386V29.9352V29.9316V29.928V29.9244V29.9206V29.9168V29.9128V29.9088V29.9048V29.9006V29.8962V29.892V29.8876V29.883V29.8784V29.8736V29.8688V29.864V29.859V29.854V29.849V29.8438V29.8384V29.833V29.8276V29.8222V29.8166V29.8108V29.805V29.7992V29.7932V29.7872V29.7812V29.775V29.7688V29.7624V29.756V29.7496V29.743V29.7364V29.7296V29.7228V29.716V29.709V29.702V29.6948V29.6876V29.6804V29.673V29.6656V29.6582V29.6506V29.643V29.6354V29.6276V29.6196V29.6118V29.6038V29.5956V29.5876V29.5794V29.571V29.5626V29.5542V29.5458V29.5372V29.5286V29.5198V29.511V29.5022V29.4932V29.4842V29.4752V29.466V29.4568V29.4476V29.4382V29.4288V29.4194V29.4098V29.4002V29.3906V29.3808V29.371V29.3612V29.3512V29.3412V29.3312V29.321V29.3108V29.3006V29.2902V29.2798V29.2694V29.2588V29.2482V29.2376V29.2268V29.2162V29.2052V29.1944V29.1834V29.1724V29.1614V29.1502V29.139V29.1278V29.1164V29.105V29.0936V29.0822V29.0706V29.059V29.0474V29.0356V29.0238V29.012V29V28.9882V28.9762V28.964V28.952V28.9398V28.9276V28.9152V28.9028V28.8904V28.878V28.8656V28.853V28.8404V28.8276V28.815V28.8022V28.7894V28.7764V28.7636V28.7506V28.7376V28.7244V28.7114V28.6982V28.685V28.6716V28.6582V28.6448V28.6314V28.618V28.6044V28.5908V28.5772V28.5636V28.5498V28.536V28.5222V28.5084V28.4944V28.4804V28.4664V28.4524V28.4384V28.4242V28.41V28.3958V28.3816V28.3672V28.3528V28.3384V28.324V28.3094V28.295V28.2804V28.2658V28.251V28.2364V28.2216V28.2068V28.192V28.1772V28.1622V28.1472V28.1322V28.1172V28.1022V28.087V28.072V28.0568V28.0416V28.0262V28.011V27.9956V27.9802V27.9648V27.9494V27.9338V27.9184V27.9028V27.8872V27.8716V27.856V27.8402V27.8244V27.8088V27.793V27.777V27.7612V27.7454V27.7294V27.7134V27.6974V27.6814V27.6654V27.6492V27.6332V27.617V27.6008V27.5846V27.5684V27.552V27.5358V27.5194V27.503V27.4866V27.4702V27.4538V27.4372V27.4208V27.4042V27.3876V27.371V27.3544V27.3378V27.3212V27.3044V27.2878V27.271V27.2542V27.2374V27.2206V27.2038V27.1868V27.17V27.153V27.1362V27.1192V27.1022V27.0852V27.0682V27.051V27.034V27.017V26.9998V26.9826V26.9654V26.9484V26.9312V26.914V26.8966V26.8794V26.8622V26.8448V26.8276V26.8102V26.7928V26.7754V26.758V26.7406V26.7232V26.7058V26.6884V26.671V26.6534V26.636V26.6184V26.601V26.5834V26.5658V26.5482V26.5306V26.513V26.4954V26.4778V26.4602V26.4426V26.4248V26.4072V26.3894V26.3718V26.354V26.3364V26.3186V26.3008V26.2832V26.2654V26.2476V26.2298V26.212V26.1942V26.1764V26.1586V26.1408V26.123V26.1052V26.0872V26.0694V26.0516V26.0338V26.0158V25.998V25.98V25.9622V25.9444V25.9264V25.9086V25.8906V25.8726V25.8548V25.8368V25.819V25.801V25.7832V25.7652V25.7472V25.7294V25.7114V25.6934V25.6756V25.6576V25.6396V25.6216V25.6038V25.5858V25.5678V25.55V25.532V25.514V25.4962V25.4782V25.4604V25.4424V25.4244V25.4066V25.3886V25.3708V25.3528V25.3348V25.317V25.2992V25.2812V25.2634V25.2454V25.2276V25.2098V25.1918V25.174V25.1562V25.1384V25.1204V25.1026V25.0848V25.067V25.0492V25.0314V25.0136V24.9958V24.9782V24.9604V24.9426V24.9248V24.9072V24.8894V24.8718V24.854V24.8364V24.8186V24.801V24.7834V24.7658V24.7482V24.7306V24.713V24.6954V24.6778V24.6602V24.6428V24.6252V24.6078V24.5902V24.5728V24.5552V24.5378V24.5204V24.503V24.4856V24.4682V24.4508V24.4336V24.4162V24.399V24.3816V24.3644V24.3472V24.33V24.3126V24.2956V24.2784V24.2612V24.244V24.227V24.2098V24.1928V24.1758V24.1588V24.1418V24.1248V24.1078V24.091V24.074V24.0572V24.0402V24.0234V24.0066V23.9898V23.9732V23.9564V23.9396V23.923V23.9064V23.8896V23.873V23.8566V23.84V23.8234V23.807V23.7906V23.774V23.7576V23.7412V23.725V23.7086V23.6924V23.676V23.6598V23.6436V23.6274V23.6114V23.5952V23.5792V23.563V23.547V23.531V23.5152V23.4992V23.4834V23.4676V23.4516V23.436V23.4202V23.4044V23.3888V23.3732V23.3576V23.342V23.3264V23.311V23.2954V23.28V23.2646V23.2492V23.234V23.2186V23.2034V23.1882V23.173V23.158V23.1428C28.8279 21.6064 27.5091 20 25.8279 20C24.7797 20 23.6227 20.5698 22.8279 21.9262V21.9316V21.9522V21.9728V21.9934V22.0142V22.0348V22.0556V22.0764V22.0974V22.1182V22.139V22.16V22.181V22.202V22.223V22.244V22.2652V22.2864V22.3074V22.3286V22.3498V22.371V22.3924V22.4136V22.435V22.4564V22.4776V22.4992V22.5206V22.542V22.5634V22.585V22.6066V22.628V22.6496V22.6712V22.6928V22.7146V22.7362V22.758V22.7796V22.8014V22.8232V22.845V22.8668V22.8886V22.9104V22.9324V22.9542V22.9762V22.998V23.02V23.042V23.064V23.086V23.108V23.13V23.1522V23.1742V23.1962V23.2184V23.2406V23.2626V23.2848V23.307V23.3292V23.3514V23.3736V23.3958V23.418V23.4404V23.4626V23.4848V23.5072V23.5294V23.5518V23.5742V23.5964V23.6188V23.6412V23.6636V23.6858V23.7082V23.7306V23.753V23.7756V23.798V23.8204V23.8428V23.8652V23.8876V23.9102V23.9326V23.955V23.9776V24V24.0226V24.045V24.0676V24.09V24.1124V24.135V24.1576V24.18V24.2026V24.225V24.2476V24.27V24.2926V24.3152V24.3376V24.3602V24.3826V24.4052V24.4278V24.4502V24.4728V24.4952V24.5178V24.5402V24.5628V24.5852V24.6078V24.6302V24.6528V24.6752V24.6978V24.7202V24.7428V24.7652V24.7876V24.81V24.8326V24.855V24.8774V24.8998V24.9222V24.9446V24.967V24.9894V25.0118V25.0342V25.0566V25.079V25.1012V25.1236V25.146V25.1682V25.1906V25.2128V25.2352V25.2574V25.2796V25.3018V25.324V25.3464V25.3686V25.3906V25.4128V25.435V25.4572V25.4792V25.5014V25.5234V25.5456V25.5676V25.5896V25.6116V25.6336V25.6556V25.6776V25.6996V25.7214V25.7434V25.7652V25.7872V25.809V25.8308V25.8526V25.8744V25.8962V25.9178V25.9396V25.9612V25.983V26.0046V26.0262V26.0478V26.0694V26.091V26.1124V26.134V26.1554V26.1768V26.1982V26.2196V26.241V26.2624V26.2838V26.305V26.3262V26.3474V26.3686V26.3898V26.411V26.4322V26.4532V26.4742V26.4952V26.5162V26.5372V26.5582V26.579V26.5998V26.6208V26.6416V26.6622V26.683V26.7038V26.7244V26.745V26.7656V26.7862V26.8066V26.8272V26.8476V26.868V26.8884V26.9088V26.929V26.9494V26.9696V26.9898V27.0098V27.03V27.05V27.07V27.09V27.11V27.13V27.1498V27.1696V27.1894V27.2092V27.2288V27.2486V27.2682V27.2878V27.3072V27.3268V27.3462V27.3656V27.385V27.4042V27.4236V27.4428V27.462V27.481V27.5002V27.5192V27.5382V27.5572V27.576V27.5948V27.6136V27.6324V27.6512V27.6698V27.6884V27.7068V27.7254V27.7438V27.7622V27.7806V27.7988V27.8172V27.8354V27.8534V27.8716V27.8896V27.9076V27.9254V27.9434V27.9612V27.979V27.9966V28.0142V28.0318V28.0494V28.0668V28.0842V28.1016V28.119V28.1362V28.1534V28.1706V28.1876V28.2046V28.2216V28.2386V28.2554V28.2722V28.2888V28.3054V28.322V28.3386V28.3552V28.3716V28.3878V28.4042V28.4204V28.4366V28.4526V28.4686V28.4846V28.5006V28.5164V28.5322V28.5478V28.5634V28.579V28.5946V28.61V28.6254V28.6406V28.656V28.6712V28.6862V28.7012V28.7162V28.7312V28.746V28.7606V28.7754V28.79V28.8046V28.819V28.8334V28.8478V28.862V28.8762V28.8902V28.9044V28.9182V28.9322V28.946V28.9598V28.9734V28.987V29.0004V29.014V29.0274V29.0406V29.0538V29.067V29.08V29.093V29.1058V29.1186V29.1314V29.1442V29.1566V29.1692V29.1816V29.194V29.2062V29.2184V29.2306V29.2426V29.2544V29.2664V29.2782V29.2898V29.3014V29.313V29.3244V29.3358V29.347V29.3582V29.3694V29.3804V29.3912V29.4022V29.4128V29.4236V29.4342V29.4446V29.455V29.4654V29.4756V29.4858V29.4958V29.5058V29.5156V29.5254V29.5352V29.5448V29.5544V29.5638V29.573V29.5824V29.5914V29.6006V29.6096V29.6184V29.6272V29.6358V29.6444V29.653V29.6614V29.6696V29.678V29.686V29.694V29.702V29.7098V29.7176V29.7252V29.7328V29.7402V29.7476V29.7548V29.762V29.769V29.776V29.7828V29.7896V29.7962V29.8028V29.8092V29.8156V29.8218V29.828V29.834V29.84V29.8458V29.8516V29.8572V29.8626V29.8682V29.8734V29.8786V29.8838V29.8888V29.8936V29.8984V29.9032V29.9078V29.9122V29.9166V29.9208V29.925V29.929V29.933V29.9368V29.9406V29.9442V29.9476V29.951V29.9542V29.9574V29.9606V29.9634V29.9662V29.969V29.9716V29.9742V29.9766V29.9788V29.981V29.983V29.9868V29.99V29.9928V29.9952V29.9978V29.9998C22.8279 31.1044 21.9325 32 20.8279 32C19.7233 32 18.8279 31.1046 18.8279 30V29.9978V29.9952V29.9928V29.99V29.9868V29.983V29.981V29.9788V29.9766V29.9742V29.9716V29.969V29.9662V29.9634V29.9606V29.9574V29.9542V29.951V29.9476V29.9442V29.9406V29.9368V29.933V29.929V29.925V29.9208V29.9166V29.9122V29.9078V29.9032V29.8984V29.8936V29.8888V29.8838V29.8786V29.8734V29.8682V29.8626V29.8572V29.8516V29.8458V29.84V29.834V29.828V29.8218V29.8156V29.8092V29.8028V29.7962V29.7896V29.7828V29.776V29.769V29.762V29.7548V29.7476V29.7402V29.7328V29.7252V29.7176V29.7098V29.702V29.694V29.686V29.678V29.6696V29.6614V29.653V29.6444V29.6358V29.6272V29.6184V29.6096V29.6006V29.5914V29.5824V29.573V29.5638V29.5544V29.5448V29.5352V29.5254V29.5156V29.5058V29.4958V29.4858V29.4756V29.4654V29.455V29.4446V29.4342V29.4236V29.4128V29.4022V29.3912V29.3804V29.3694V29.3582V29.347V29.3358V29.3244V29.313V29.3014V29.2898V29.2782V29.2664V29.2544V29.2426V29.2306V29.2184V29.2062V29.194V29.1816V29.1692V29.1566V29.1442V29.1314V29.1186V29.1058V29.093V29.08V29.067V29.0538V29.0406V29.0274V29.014V29.0004V28.987V28.9734V28.9598V28.946V28.9322V28.9182V28.9044V28.8902V28.8762V28.862V28.8478V28.8334V28.819V28.8046V28.79V28.7754V28.7606V28.746V28.7312V28.7162V28.7012V28.6862V28.6712V28.656V28.6406V28.6254V28.61V28.5946V28.579V28.5634V28.5478V28.5322V28.5164V28.5006V28.4846V28.4686V28.4526V28.4366V28.4204V28.4042V28.3878V28.3716V28.3552V28.3386V28.322V28.3054V28.2888V28.2722V28.2554V28.2386V28.2216V28.2046V28.1876V28.1706V28.1534V28.1362V28.119V28.1016V28.0842V28.0668V28.0494V28.0318V28.0142V27.9966V27.979V27.9612V27.9434V27.9254V27.9076V27.8896V27.8716V27.8534V27.8354V27.8172V27.7988V27.7806V27.7622V27.7438V27.7254V27.7068V27.6884V27.6698V27.6512V27.6324V27.6136V27.5948V27.576V27.5572V27.5382V27.5192V27.5002V27.481V27.462V27.4428V27.4236V27.4042V27.385V27.3656V27.3462V27.3268V27.3072V27.2878V27.2682V27.2486V27.2288V27.2092V27.1894V27.1696V27.1498V27.13V27.11V27.09V27.07V27.05V27.03V27.0098V26.9898V26.9696V26.9494V26.929V26.9088V26.8884V26.868V26.8476V26.8272V26.8066V26.7862V26.7656V26.745V26.7244V26.7038V26.683V26.6622V26.6416V26.6208V26.5998V26.579V26.5582V26.5372V26.5162V26.4952V26.4742V26.4532V26.4322V26.411V26.3898V26.3686V26.3474V26.3262V26.305V26.2838V26.2624V26.241V26.2196V26.1982V26.1768V26.1554V26.134V26.1124V26.091V26.0694V26.0478V26.0262V26.0046V25.983V25.9612V25.9396V25.9178V25.8962V25.8744V25.8526V25.8308V25.809V25.7872V25.7652V25.7434V25.7214V25.6996V25.6776V25.6556V25.6336V25.6116V25.5896V25.5676V25.5456V25.5234V25.5014V25.4792V25.4572V25.435V25.4128V25.3906V25.3686V25.3464V25.324V25.3018V25.2796V25.2574V25.2352V25.2128V25.1906V25.1682V25.146V25.1236V25.1012V25.079V25.0566V25.0342V25.0118V24.9894V24.967V24.9446V24.9222V24.8998V24.8774V24.855V24.8326V24.81V24.7876V24.7652V24.7428V24.7202V24.6978V24.6752V24.6528V24.6302V24.6078V24.5852V24.5628V24.5402V24.5178V24.4952V24.4728V24.4502V24.4278V24.4052V24.3826V24.3602V24.3376V24.3152V24.2926V24.27V24.2476V24.225V24.2026V24.18V24.1576V24.135V24.1124V24.09V24.0676V24.045V24.0226V24V23.9776V23.955V23.9326V23.9102V23.8876V23.8652V23.8428V23.8204V23.798V23.7756V23.753V23.7306V23.7082V23.6858V23.6636V23.6412V23.6188V23.5964V23.5742V23.5518V23.5294V23.5072V23.4848V23.4626V23.4404V23.418V23.3958V23.3736V23.3514V23.3292V23.307V23.2848V23.2626V23.2406V23.2184V23.1962V23.1742V23.1522V23.13V23.108V23.086V23.064V23.042V23.02V22.998V22.9762V22.9542V22.9324V22.9104V22.8886V22.8668V22.845V22.8232V22.8014V22.7796V22.758V22.7362V22.7146V22.6928V22.6712V22.6496V22.628V22.6066V22.585V22.5634V22.542V22.5206V22.4992V22.4776V22.4564V22.435V22.4136V22.3924V22.371V22.3498V22.3286V22.3074V22.2864V22.2652V22.244V22.223V22.202V22.181V22.16V22.139V22.1182V22.0974V22.0764V22.0556V22.0348V22.0142V21.9934V21.9728V21.9522V21.9316V21.911V21.8904V21.8698V21.8494V21.829V21.8086V21.7882V21.768V21.7476V21.7274V21.7072V21.687V21.667V21.6468V21.6268V21.6068V21.5868V21.5668V21.547V21.5272V21.5074V21.4876V21.4678V21.4482V21.4286V21.4208V21.4128V21.405V21.397V21.3892V21.3812V21.3732V21.3652V21.3572V21.3492V21.3412V21.3332V21.3252V21.3172V21.309V21.301V21.2928V21.2846V21.2766V21.2684V21.2602V21.252V21.2438V21.2356V21.2274V21.2192V21.211V21.2026V21.1944V21.186V21.1778V21.1694V21.161V21.1528V21.1444V21.136V21.1276V21.1192V21.1108V21.1024V21.094V21.0854V21.077V21.0686V21.06V21.0516V21.043V21.0346V21.026V21.0174V21.009V21.0004V20.9918V20.9832V20.9746V20.966V20.9574V20.9488V20.9402V20.9314V20.9228V20.9142V20.9056V20.8968V20.8882V20.8794V20.8708V20.862V20.8532V20.8446V20.8358V20.827V20.8184V20.8096V20.8008V20.792V20.7832V20.7744V20.7656V20.7568V20.748V20.7392V20.7304V20.7214V20.7126V20.7038V20.695V20.686V20.6772V20.6684V20.6594V20.6506V20.6416V20.6328V20.6238V20.615V20.606V20.5972V20.5882V20.5792V20.5704V20.5614V20.5524V20.5436V20.5346V20.5256V20.5166V20.5078V20.4988V20.4898V20.4808V20.4718V20.4628V20.454V20.445V20.436V20.427V20.418V20.409V20.4V20.391V20.382V20.373V20.364V20.355V20.346V20.337V20.328V20.319V20.31V20.301V20.292V20.283V20.274V20.265V20.256V20.247V20.238V20.229V20.22V20.211V20.2018V20.1928V20.1838V20.1748V20.1658V20.1568V20.1478V20.1388V20.1298V20.1208V20.112V20.103V20.094V20.085V20.076V20.067V20.058V20.049V20.04V20.031V20.0222V20.0132V20.0042V19.9952V19.9864V19.9774V19.9684V19.9594V19.9506V19.9416V19.9326V19.9238V19.9148V19.906V19.897V19.8882V19.8792V19.8704V19.8614V19.8526V19.8438V19.8348V19.826V19.8172V19.8082V19.7994V19.7906V19.7818V19.773V19.7642V19.7554V19.7466V19.7378V19.729V19.7202V19.7114V19.7026V19.694V19.6852V19.6764V19.6676V19.659V19.6502V19.6416V19.6328V19.6242V19.6154V19.6068V19.5982V19.5896V19.5808V19.5722V19.5636V19.555V19.5464V19.5378V19.5292V19.5206V19.5122V19.5036V19.495V19.4866V19.478V19.4694V19.461V19.4526V19.444V19.4356V19.4272V19.4188V19.4104V19.4018V19.3934V19.3852V19.3768V19.3684V19.36V19.3518V19.3434V19.335V19.3268V19.3186V19.3102V19.302V19.2938V19.2856V19.2774V19.2692V19.261V19.2528V19.2446V19.2366V19.2284V19.2202V19.2122V19.2042V19.196V19.188V19.18V19.172V19.164V19.156V19.148V19.14V19.1322V19.1242V19.1164V19.1084V19.1006V19.0928V19.0848V19.077V19.0692V19.0616V19.0538V19.046V19.0382V19.0306V19.0228V19.0152V19.0076V19V18.9924V18.9848V18.9772V18.9696V18.962V18.9546V18.947V18.9396V18.9322V18.9246V18.9172V18.9098V18.9024V18.8952V18.8878V18.8804V18.8732V18.8658V18.8586V18.8514V18.8442V18.837V18.8298V18.8226V18.8156V18.8084V18.8014V18.7942V18.7872V18.7802V18.7732V18.7662V18.7594V18.7524V18.7456V18.7386V18.7318V18.725V18.7182V18.7114V18.7046V18.6978V18.6912V18.6844V18.6778V18.6712V18.6646V18.658V18.6514V18.6448V18.6384V18.6318V18.6254V18.619V18.6126V18.6062V18.5998V18.5934V18.5872V18.5808V18.5746V18.5684V18.5622V18.556V18.5498V18.5438V18.5376V18.5316V18.5256V18.5196V18.5136V18.5076V18.5016V18.4958V18.4898V18.484V18.4782V18.4724V18.4666V18.461V18.4552V18.4496V18.4438V18.4382V18.4326V18.4272V18.4216V18.4162V18.4106V18.4052V18.3998V18.3944V18.389V18.3838V18.3784V18.3732V18.368V18.3628V18.3576V18.3526V18.3474V18.3424V18.3374V18.3324V18.3274V18.3224V18.3176V18.3126V18.3078V18.303V18.2982V18.2934V18.2888V18.284V18.2794V18.2748V18.2702V18.2658V18.2612V18.2568V18.2522V18.2478V18.2434V18.2392V18.2348V18.2306V18.2264V18.2222V18.218V18.2138V18.2098V18.2056V18.2016V18.1976V18.1938V18.1898V18.186V18.182V18.1782V18.1746V18.1708V18.167V18.1634V18.1598V18.1562V18.1526V18.1492V18.1456V18.1422V18.1388V18.1354V18.1322V18.1288V18.1256V18.1224V18.1192V18.116V18.113V18.11V18.107V18.104V18.101V18.098V18.0952V18.0924V18.0896V18.0868V18.0842V18.0816V18.0788V18.0764V18.0738V18.0712V18.0688V18.0664V18.064V18.0616V18.0594V18.0572V18.055V18.0528V18.0506V18.0486V18.0464V18.0444V18.0406V18.037V18.0334V18.03V18.0268V18.0238V18.021V18.0182V18.0158V18.0134V18.0104V18.0084V18.006V18.004V18.0016C18.8279 16.897 19.7233 16 20.8279 16Z" fill="black"/>
</svg>
