<svg width="52" height="40" viewBox="0 0 52 40" fill="none" xmlns="http://www.w3.org/2000/svg">
<path d="M43.8673 3.35378C40.5135 1.79959 36.9416 0.654395 33.1788 0C32.7153 0.817994 32.1699 1.93592 31.8155 2.83571C27.8346 2.23585 23.8809 2.23585 19.9819 2.83571C19.6001 1.93592 19.0548 0.817994 18.5913 0C14.8285 0.654395 11.2566 1.79959 7.9028 3.35378C1.14072 13.5514 -0.686137 23.5038 0.213657 33.2925C4.71263 36.6462 9.04799 38.6639 13.3288 40C14.3922 38.5549 15.3193 37.0007 16.1373 35.392C14.5831 34.8194 13.1107 34.0832 11.7201 33.2379C12.1018 32.9653 12.4563 32.6653 12.8108 32.3927C21.3451 36.3736 30.5885 36.3736 39.0138 32.3927C39.3683 32.6926 39.7227 32.9653 40.1045 33.2379C38.7139 34.0832 37.2142 34.7921 35.6873 35.392C36.5053 37.0007 37.4324 38.5549 38.4958 40C42.7766 38.6639 47.1392 36.6462 51.6109 33.2925C52.6743 21.9223 49.7841 12.079 43.9218 3.35378H43.8673ZM17.2825 27.2938C14.7194 27.2938 12.6199 24.9216 12.6199 22.0041C12.6199 19.0866 14.6649 16.7144 17.2825 16.7144C19.9 16.7144 21.9723 19.0866 21.945 22.0041C21.945 24.8944 19.9 27.2938 17.2825 27.2938ZM34.4876 27.2938C31.9245 27.2938 29.825 24.9216 29.825 22.0041C29.825 19.0866 31.87 16.7144 34.4876 16.7144C37.1052 16.7144 39.1774 19.0866 39.1502 22.0041C39.1502 24.8944 37.1052 27.2938 34.4876 27.2938Z" fill="black"/>
</svg>
